<svg width="140px" height="40px" viewBox="0 0 138 23" version="1.1" xmlns="http://www.w3.org/2000/svg" xmlns:xlink="http://www.w3.org/1999/xlink">
    <g stroke="none" stroke-width="1" fill="none" fill-rule="evenodd">
        <path d="M41.4181117,6.27032614 C44.5268616,6.27032614 46.9962228,8.70479118 46.9962228,11.8316268 C46.9962228,14.9361282 44.5268616,17.3929276 41.4181117,17.3929276 C38.3093618,17.3929276 35.84,14.9361282 35.84,11.8316268 C35.84,8.70479118 38.3093618,6.27032614 41.4181117,6.27032614 Z M41.4181117,14.891459 C43.2039893,14.891459 44.3063827,13.484383 44.3063827,11.8316268 C44.3063827,10.1788709 43.2039893,8.77179473 41.4181117,8.77179473 C39.632234,8.77179473 38.5298401,10.1788709 38.5298401,11.8316268 C38.5298401,13.484383 39.632234,14.891459 41.4181117,14.891459 Z M61.0627653,6.27032614 C63.1793609,6.27032614 64.7227116,7.76674048 64.7227116,10.3128781 L64.7227116,17.1249132 L63.2066752,17.1249132 C62.5808389,17.1249132 62.0769671,16.6127792 62.0769671,15.98103 L62.0769671,11.0052489 C62.0769671,9.55350372 61.5257706,8.77179473 60.2028983,8.77179473 C58.8138823,8.77179473 58.1524462,10.1342018 58.1524462,10.1342018 L58.1524462,17.1249132 L56.6364097,17.1249132 C56.0105735,17.1249132 55.5067016,16.6127792 55.5067016,15.98103 L55.5067016,11.0052489 C55.5067016,9.55350372 54.9555046,8.77179473 53.6326324,8.77179473 C52.2436165,8.77179473 51.5821803,10.1342018 51.5821803,10.1342018 L51.5821803,17.1249132 L50.0661439,17.1249132 C49.4403077,17.1249132 48.9364357,16.6131714 48.9364357,15.9819059 L48.9364357,6.53834063 L50.2795093,6.53834063 C50.9001266,6.53834063 51.4057975,7.05062363 51.4057975,7.68255672 L51.4057975,8.07942391 C51.4057975,8.07942391 52.3538557,6.27032614 54.4924994,6.27032614 C57.0059567,6.27032614 57.7335365,8.12409305 57.7335365,8.12409305 C57.7335365,8.12409305 58.6154515,6.27032614 61.0627653,6.27032614 Z M72.9686159,6.27032614 C74.99702,6.27032614 76.8049456,7.72207134 76.8049456,10.268209 L76.8049456,17.1249132 L75.2889091,17.1249132 C74.6630729,17.1249132 74.159201,16.6136493 74.159201,15.9829733 L74.159201,10.9382453 C74.159201,9.41949642 73.2331904,8.77179473 72.086701,8.77179473 C70.7197331,8.77179473 70.0142008,10.1342018 70.0142008,10.1342018 L70.0142008,17.1249132 L68.4981644,17.1249132 C67.8723281,17.1249132 67.3684562,16.6131714 67.3684562,15.9819059 L67.3684562,6.53834063 L68.7115298,6.53834063 C69.332147,6.53834063 69.837818,7.05062363 69.837818,7.68255672 L69.837818,8.07942391 C69.837818,8.07942391 70.7638286,6.27032614 72.9686159,6.27032614 Z M79.8695994,15.9819059 L79.8695994,6.53834063 L81.3856359,6.53834063 C82.0114721,6.53834063 82.515344,7.05008239 82.515344,7.68134797 L82.515344,17.1249132 L80.9993076,17.1249132 C80.3734713,17.1249132 79.8695994,16.6131714 79.8695994,15.9819059 Z M79.8695994,3.7866425 L79.8695994,1.48444444 L81.3856359,1.48444444 C82.0114721,1.48444444 82.515344,2.01375413 82.515344,2.66669085 L82.515344,4.96888889 L80.9993076,4.96888889 C80.3734713,4.96888889 79.8695994,4.43957912 79.8695994,3.7866425 Z M85.8886684,15.9842318 L85.8886684,0.24 L87.4047048,0.24 C88.030541,0.24 88.534413,0.750700446 88.534413,1.38068138 L88.534413,17.1249132 L87.0183765,17.1249132 C86.3925402,17.1249132 85.8886684,16.6142127 85.8886684,15.9842318 Z M104.199988,13.6407247 L104.199988,3.38917032 L105.716024,3.38917032 C106.34186,3.38917032 106.845733,3.90217641 106.845733,4.53500149 L106.845733,6.53834063 L108.869233,6.53834063 C109.492019,6.53834063 109.998578,7.04985101 109.998578,7.68083093 L109.998578,8.95047107 L106.845733,8.95047107 L106.845733,13.2163685 C106.845733,14.5117718 107.507168,14.891459 108.2127,14.891459 C108.522299,14.891459 108.808043,14.7887607 109.011005,14.6901863 C109.198296,14.5992232 109.414839,14.7368202 109.464712,14.8493444 L110.2852,16.7005569 C110.2852,16.7005569 109.293046,17.3929276 107.771743,17.3929276 C105.743338,17.3929276 104.199988,15.8965134 104.199988,13.6407247 Z M112.578178,15.9819059 L112.578178,6.53834063 L114.094215,6.53834063 C114.720052,6.53834063 115.223923,7.05008239 115.223923,7.68134797 L115.223923,17.1249132 L113.707887,17.1249132 C113.082051,17.1249132 112.578178,16.6131714 112.578178,15.9819059 Z M112.578178,3.7866425 L112.578178,1.48444444 L114.094215,1.48444444 C114.720052,1.48444444 115.223923,2.01375413 115.223923,2.66669085 L115.223923,4.96888889 L113.707887,4.96888889 C113.082051,4.96888889 112.578178,4.43957912 112.578178,3.7866425 Z M123.205252,14.891459 C124.433384,14.891459 125.192309,14.2788377 125.546558,13.8961838 C125.707437,13.7224051 125.908306,13.7226955 126.091582,13.9107054 C126.441709,14.2698742 127.010168,14.8530139 127.353358,15.2050662 C127.411117,15.2643171 127.462339,15.4690238 127.335313,15.6057295 C126.848946,16.1291551 125.44295,17.3929276 123.205252,17.3929276 C120.074455,17.3929276 117.583045,14.9361282 117.583045,11.8316268 C117.583045,8.70479118 120.074455,6.27032614 123.205252,6.27032614 C125.236549,6.27032614 126.571663,7.30467192 127.151671,7.87264664 C127.371186,8.08760744 127.244402,8.45084259 127.125333,8.55838098 L125.926355,9.6412473 C125.838516,9.72057944 125.562868,9.77202796 125.387927,9.61429108 C125.021225,9.2836508 124.279983,8.77179473 123.205252,8.77179473 C121.419375,8.77179473 120.272886,10.1788709 120.272886,11.8316268 C120.272886,13.484383 121.419375,14.891459 123.205252,14.891459 Z M128.858033,15.7425943 C128.677029,15.5791336 128.741671,15.2659847 128.815718,15.1685837 L129.828418,13.8364879 C129.906326,13.7340093 130.171489,13.6486133 130.367784,13.8206436 C130.8711,14.2617433 131.946047,15.0478008 133.214986,15.0478008 C134.295333,15.0478008 135.199294,14.7351172 135.199294,14.0874156 C135.199294,13.3950448 134.714242,13.2610375 133.126795,12.9260195 C131.054295,12.4793286 129.246369,11.5859469 129.246369,9.57583824 C129.246369,7.92308209 130.877912,6.27032614 133.744135,6.27032614 C135.467213,6.27032614 136.766864,6.96138321 137.342414,7.33401588 C137.554868,7.47156679 137.503375,7.81129452 137.426186,7.92597676 L136.56473,9.20587266 C136.491748,9.31430481 136.200889,9.41972597 135.952286,9.27459492 C135.488266,9.00370608 134.662941,8.61545302 133.744135,8.61545302 C132.751981,8.61545302 131.848018,8.97280568 131.848018,9.62050727 C131.848018,10.268209 132.55355,10.4245508 134.31738,10.8042381 C136.38988,11.2509288 137.867087,11.9432996 137.867087,14.1320847 C137.867087,15.9411824 135.97097,17.3929276 133.303179,17.3929276 C130.961773,17.3929276 129.444006,16.2717727 128.858033,15.7425943 Z M90.606913,21.413145 L91.8415937,19.3360327 C91.8415937,19.3360327 92.5471259,20.0284036 93.2306096,20.0284036 C94.1345726,20.0284036 94.5093864,19.7603891 95.0164872,18.4649857 L95.4353969,17.3705932 L90.3423386,6.53834063 L92.5195481,6.53834063 C92.9383258,6.53834063 93.4162555,6.84931872 93.5908661,7.23292962 L96.8023652,14.2884265 L99.5583486,6.53834063 L101.278431,6.53834063 C101.894043,6.53834063 102.21673,7.01295591 101.987542,7.59842353 L97.3315135,19.4923746 C96.4275515,21.8151668 94.9503436,22.5298722 93.4069929,22.5298722 C91.8195461,22.5298722 90.606913,21.413145 90.606913,21.413145 Z M22.3387748,5.5724399 L6.60313502,21.3080797 L5.67012658,20.3750712 C5.15588881,19.8608334 5.15147082,19.0277102 5.66260065,18.5165804 L21.3982405,2.78094058 L22.3312489,3.71394895 C22.8454866,4.22818672 22.8499047,5.06131002 22.3387748,5.5724399 Z M1.93809316,16.6430378 L1.00508482,15.7100295 C0.490847008,15.1957916 0.486677222,14.3624203 0.99811319,13.8509843 L10.2538734,4.59522414 L11.1868818,5.52823252 C11.7011195,6.04247029 11.7052893,6.87584168 11.1938534,7.38727761 L1.93809316,16.6430378 Z M17.7663919,19.4749063 L16.8333835,18.541898 C16.3191457,18.0276602 16.314976,17.1942888 16.826412,16.6828529 L26.0821722,7.42709271 L27.0151805,8.36010101 C27.5294182,8.87433878 27.533588,9.70771019 27.0221521,10.2191461 L17.7663919,19.4749063 Z" id="Shape" fill="#03021A" fill-rule="nonzero"></path>
    </g>
</svg>